<svg width="128" height="128" viewBox="0 0 135.467 135.467" xmlns="http://www.w3.org/2000/svg">
    <path style="fill:#333;fill-opacity:1;stroke-width:.999999" d="m211.83 18.39-2.924 2.924-2.924 2.924v26.037c-15.19-2.8-31.58 1.361-44.033 12.534-4.23 3.795-10.48 12.72-12.81 18.296-1.393 3.333-1.515 3.424-6.877 5.223-8.321 2.792-13.098 5.85-20 12.795-2.385 2.4-4.447 4.81-6.221 7.268H77.982l.008-12.75.008-12.75 3.941-2.25c13.3-7.595 15.577-27.003 4.385-37.385-4.99-4.63-9.319-6.297-16.342-6.297-7.023 0-11.351 1.668-16.341 6.297-11.193 10.382-8.916 29.79 4.384 37.385l3.942 2.25.008 17.828.007 17.826 2.924 2.924 2.922 2.922h40.813c-2.579 10.618-1.682 21.923 2.322 31.843-5.594.094-12.078.157-30.983.157-11.18 0-11.721-.096-12.714-2.276-3.73-8.184-11.694-13.084-21.284-13.088-9.625-.005-16.825 4.35-21.271 12.864-2.891 5.539-2.876 15.479.033 21.095 4.865 9.39 15.87 14.702 25.838 12.471 6.459-1.445 12.579-5.738 15.557-10.912 2.168-3.768 2.468-3.922 8.795-4.52 3.223-.304 29.302-.226 44.867-.195l-1.016 5.104c-2.174 10.93-.478 23.376 4.541 33.33 2.688 5.33 6.342 10.075 10.658 14.082v28.049l-20.75-.01-20.75-.008-2.252-3.941c-7.594-13.3-27.003-15.575-37.384-4.383-4.63 4.99-6.297 9.319-6.297 16.342 0 7.022 1.668 11.35 6.297 16.34 10.381 11.191 29.79 8.917 37.384-4.383l2.252-3.944 25.827-.008 25.828-.007 3.06-3.061 3.063-3.062.08-27.584c7.405 2.953 15.435 4.195 23.347 3.296l5.97-.68 3.17 2.956c4.666 4.35 9.955 7.753 15.642 10.117l-.487 2.018v40H171.83l-2.924 2.923-2.922 2.924V415.857l-36 36.05c-26.405 26.44-36 36.662-36 38.345 0 1.262 1.315 3.611 2.922 5.219l2.922 2.922H360.137l2.924-2.924c1.607-1.608 2.921-3.952 2.921-5.21 0-1.659-7.68-9.983-28-30.349l-28-28.064v-43.659l8.157-13.648c4.485-7.506 8.55-14.162 9.033-14.791.618-.805 4.943 1.238 14.596 6.897 7.543 4.422 18.864 10.562 25.158 13.644l11.443 5.604 26.838.295 26.838.296 2.969-2.97 2.968-2.97v-47.517l8-8.195 8-8.195v-25.994l8.524-.448c9.392-.493 12.164-1.824 16.226-7.793 4.346-6.385 3.544-9.496-10.712-41.496l-12.915-28.986 2.487-3.26c4.504-5.906 9.474-17.827 11.015-26.42 3.512-19.578-2.218-50.13-13.691-73-9.978-19.89-26.94-39.533-44.451-51.474-9.289-6.335-42.184-23.375-45.125-23.375-.916 0-3.378 1.8-5.47 4l-3.808 4h-54.079v-9.077c0-8.699-.121-9.198-2.922-12l-2.924-2.923H211.83zm10.154 16.003h64v8.945c0 8.011.252 9.237 2.412 11.75l2.41 2.805 26.965.5 26.963.5-12.886 18c-7.088 9.9-13.138 18.787-13.444 19.75-.427 1.347-13.674.8-25.771.619-5.417-13.437-16.36-24.348-30.801-29.15-7.508-2.498-15.094-3.376-21.791-2.524l-5.514.701-3.142-3.021a49.309 49.309 0 0 0-9.4-7.086V34.393zm-152 16c6.991 0 10.506 8.586 5.545 13.546-1.547 1.548-3.596 2.454-5.545 2.454-1.948 0-4-.906-5.546-2.454-1.548-1.547-2.454-3.598-2.454-5.546 0-1.949.906-3.998 2.453-5.545 1.548-1.548 3.599-2.455 5.547-2.455zm298.4 2.587c3.113.177 21.177 9.55 31.637 16.543 32.833 21.95 53.963 61.036 53.963 99.82 0 14.207-2.928 22.925-10.941 32.58-2.269 2.734-4.364 5.909-4.658 7.056-.348 1.358 4.326 13.03 13.418 33.5l13.953 31.414-11.477.5c-11.058.481-11.565.603-13.886 3.306-2.278 2.652-2.409 3.515-2.409 15.75v12.944h-4.394c-8.88 0-18.937-4.293-29.088-12.416-6.438-5.153-13.852-2.72-13.852 4.546 0 2.61.976 4.137 5.016 7.852 6.003 5.52 16.624 11.274 24.664 13.361 3.216.835 6.085 1.755 6.375 2.045.29.29-.654 1.931-2.098 3.647l-2.623 3.119v41.848l-20.25-.032-20.25-.029-15-7.777c-15.841-8.214-19.266-10.18-37.25-21.38l-11.25-7.005v-54.567L336 272.387c12.542-5.026 18.619-7.985 20-9.74 1.806-2.297 1.984-4.084 1.984-19.954 0-11.33-.406-18.191-1.162-19.603-.639-1.195-6.039-8.66-12-16.592l-10.838-14.42v-91.631l16.612-23.277c9.137-12.802 16.955-23.647 17.373-24.1.068-.073.208-.101.416-.09zM197.079 63.242c8.709.075 13.377 1.39 19.639 5.543 3.41 2.262 3.606 2.533 2.424 3.342-.708.484-10.323 6.114-21.37 12.512-24.065 13.937-22.36 12.885-23.015 14.181-.293.58-.688 13.287-.88 28.237l-.345 27.181-7.445-4.277-7.445-4.28v-24.349c0-21.995.133-24.87 1.37-29.709 1.892-7.396 4.368-11.695 10.046-17.447 7.939-8.044 15.33-11.034 27.021-10.934zm48.096 15.633c2.547-.046 5.01.121 7.101.525 15.175 2.932 27.963 16.177 30.332 31.418.648 4.164.34 11.565-.48 11.565-.167 0-9.405-5.254-20.53-11.674-23.879-13.783-24.194-13.951-26.128-13.951-.825 0-11.753 5.92-24.283 13.158-12.531 7.237-23.101 13.16-23.489 13.16-.45 0-.634-3.053-.51-8.44l.196-8.439 20.734-11.972C219.521 87.64 230.74 81.6 233.05 80.803c3.399-1.175 7.88-1.85 12.125-1.928zm104.81 19.518v32h16v-32h-16zm-205.54 1.25.347 26.244.346 26.246 1.73 1.683c.952.926 11.549 7.339 23.547 14.25 11.999 6.912 22.048 12.796 22.33 13.077.283.28-1.588 1.709-4.156 3.173l-7.438 4.245-2.771 1.58-20.775-12.03c-11.428-6.616-22.372-13.43-24.32-15.142-12.607-11.072-16.07-29.616-8.448-45.233 2.88-5.898 10.392-13.624 15.799-16.246l3.808-1.847zm90.835 12.23c.442-.124 10.085 5.074 21.43 11.549 18.027 10.29 21.243 12.384 25.521 16.621 15.015 14.868 15.07 38.54.124 53.316-2.336 2.309-6.178 5.211-8.538 6.452l-4.289 2.255-.213-26.322-.21-26.322-1.731-1.682c-.952-.924-11.548-7.347-23.547-14.271-11.998-6.925-22.045-12.807-22.324-13.073-.447-.425 11.702-7.94 13.777-8.523zm61.059 2.52h21.646v32l-15.16-.215a48.272 48.272 0 0 0-5.79-9.934l-2.774-3.662 1.1-5.46a52.547 52.547 0 0 0 .978-12.73zm-89.287 13.55 9.904 5.71 9.902 5.708v22.836l-9.695 5.66c-5.333 3.114-9.85 5.668-10.04 5.678-.191.01-4.711-2.544-10.044-5.678l-9.695-5.697v-22.765l9.834-5.727 9.834-5.725zm142.933 18.45v16h16v-16h-16zm-109.275.935 7.445 4.299 7.446 4.297v24.326c0 21.969-.134 24.844-1.371 29.682-1.893 7.398-4.369 11.697-10.045 17.441-5.505 5.57-12.404 9.353-19.358 10.613-10.03 1.819-19.977-.141-27.703-5.457-1.808-1.243-3.025-2.497-2.705-2.787.32-.29 9.83-5.847 21.135-12.351 24.498-14.096 23.266-13.341 23.931-14.657.293-.58.689-13.284.88-28.23l.345-27.176zm-195.1 7.158c5.292-.161 10.115 5.64 6.993 11.678-.85 1.643-2.272 3.266-3.163 3.607-8.328 3.196-15.223-6.702-9.002-12.923 1.592-1.591 3.408-2.308 5.172-2.362zm261.182 7.594 11.193.313v32l-19.117.109c.865-1.375 1.659-2.9 2.635-4.941 4.121-8.622 5.515-14.527 5.478-23.202a53.837 53.837 0 0 0-.189-4.279zm43.193 16.313v16h16v-16h-16zm72 .15c-1.614 0-3.23.925-5.078 2.773-2.801 2.802-2.922 3.301-2.922 12v9.077h-9.078c-8.699 0-9.198.122-12 2.923-1.607 1.608-2.922 3.892-2.922 5.077 0 1.184 1.315 3.47 2.922 5.078l2.924 2.922H424.14l2.922-2.922 2.923-2.924V184.24l-2.923-2.924c-1.85-1.848-3.463-2.773-5.077-2.773zm-195.72.15c.38.381.489 16.396.113 16.772-.503.503-37.745 22-40.887 23.601-1.802.918-5.229 2.129-7.617 2.692-12.736 3.003-25.738-.678-35.166-9.955-7.284-7.168-11.179-16.272-11.33-26.48-.044-2.946.122-5.556.367-5.802.246-.245 9.593 4.83 20.772 11.278 25.06 14.455 24.596 14.217 26.861 13.763 1.015-.202 11.903-6.182 24.197-13.287 12.294-7.105 22.505-12.766 22.69-12.582zm57.03 31.135 44.632.065 7.03 9.443 7.028 9.441v13.616h-32v16l9.25.045 9.25.044-11 4.448c-14.617 5.91-15.5 6.965-15.5 18.52v8.943h-88V252.16c3.669.438 4.634.35 9.534-.322 8.379-1.15 15.921-3.947 22.466-8.293V258.393h16v-16H247.646a50.864 50.864 0 0 0 5.872-4.96c5.132-5.052 9.062-10.753 11.435-16.585l1.547-3.803 5.729-1.943c4.442-1.508 7.784-3.047 11.066-5.274zm-5.31 32.565v16h16v-16h-16zM70.12 250.389c1.888.086 3.81.858 5.41 2.459 3.248 3.247 3.248 7.844 0 11.091-5.24 5.24-13.545 1.754-13.545-5.685 0-4.925 3.982-8.055 8.135-7.865zm111.867 56.004h48l-.027 58.75-.025 58.75-7.725 8.882-7.725 8.881-.271-19.63-.272-19.633h-15.957V460.502l-9.636 10.945-9.637 10.946h-58.182l30.729-30.788 30.728-30.787V306.393zm63.998 0h16v50.363l16 16.107c12.774 12.86 16 16.654 16 18.819v2.71h-48v-88zm32 0h24v16.865c0 19.022.3 19.927 8.04 24.277 2.178 1.224 3.96 2.56 3.96 2.965 0 .406-2.984 5.721-6.63 11.814-3.647 6.094-6.918 11.079-7.268 11.079-.35 0-5.466-4.845-11.37-10.766l-10.732-10.766v-45.468zm-80 32v16h16v-16h-16zm0 32v16h16v-16h-16zm48 40h16v72h-31.058c-24.586 0-30.902-.26-30.301-1.25.417-.688 10.025-11.825 21.35-24.75 11.325-12.925 21.36-24.613 22.3-25.973 1.295-1.873 1.71-4.601 1.71-11.25v-8.777zm32 0h16v26.4l22.721 22.8 22.72 22.8h-61.44v-72z" transform="scale(.26458)"/>
</svg>
